<mxfile host="Electron" agent="Mozilla/5.0 (Windows NT 10.0; Win64; x64) AppleWebKit/537.36 (KHTML, like Gecko) draw.io/28.1.2 Chrome/138.0.7204.243 Electron/37.4.0 Safari/537.36" version="28.1.2">
  <diagram name="Page-1" id="EityS3i2jAoheY3nX5Qh">
    <mxGraphModel dx="1226" dy="736" grid="1" gridSize="10" guides="1" tooltips="1" connect="1" arrows="1" fold="1" page="1" pageScale="1" pageWidth="850" pageHeight="1100" math="0" shadow="0">
      <root>
        <mxCell id="0" />
        <mxCell id="1" parent="0" />
        <mxCell id="FvhLVzp3-vAK4EzgBv7z-2" value="&#xa;&lt;font style=&quot;forced-color-adjust: none; font-family: Helvetica; font-size: 12px; font-style: normal; font-variant-ligatures: normal; font-variant-caps: normal; font-weight: 400; letter-spacing: normal; orphans: 2; text-align: center; text-indent: 0px; text-transform: none; widows: 2; word-spacing: 0px; -webkit-text-stroke-width: 0px; white-space: normal; background-color: rgb(236, 236, 236); text-decoration-thickness: initial; text-decoration-style: initial; text-decoration-color: initial; color: rgb(127, 0, 255);&quot; data-mx-given-colors=&quot;{&amp;quot;color&amp;quot;:&amp;quot;rgb(127, 0, 255)&amp;quot;}&quot;&gt;&lt;b style=&quot;forced-color-adjust: none;&quot;&gt;Ảnh + Bounding box +&amp;nbsp;&lt;/b&gt;&lt;/font&gt;&lt;div style=&quot;forced-color-adjust: none; color: rgb(0, 0, 0); font-family: Helvetica; font-size: 12px; font-style: normal; font-variant-ligatures: normal; font-variant-caps: normal; font-weight: 400; letter-spacing: normal; orphans: 2; text-align: center; text-indent: 0px; text-transform: none; widows: 2; word-spacing: 0px; -webkit-text-stroke-width: 0px; white-space: normal; background-color: rgb(236, 236, 236); text-decoration-thickness: initial; text-decoration-style: initial; text-decoration-color: initial;&quot;&gt;&lt;font style=&quot;forced-color-adjust: none; color: rgb(127, 0, 255);&quot; data-mx-given-colors=&quot;{&amp;quot;color&amp;quot;:&amp;quot;rgb(127, 0, 255)&amp;quot;}&quot;&gt;&lt;b style=&quot;forced-color-adjust: none;&quot;&gt;label + confident_score&lt;/b&gt;&lt;/font&gt;&lt;/div&gt;&#xa;&#xa;" style="whiteSpace=wrap;html=1;aspect=fixed;fillColor=none;" vertex="1" parent="1">
          <mxGeometry x="645" y="735" width="575" height="575" as="geometry" />
        </mxCell>
        <mxCell id="FvhLVzp3-vAK4EzgBv7z-3" value="WEB Interface" style="text;html=1;align=center;verticalAlign=middle;resizable=0;points=[];autosize=1;strokeColor=#2D7600;fillColor=#60a917;fontColor=#ffffff;fontStyle=1;fontSize=18;" vertex="1" parent="1">
          <mxGeometry x="865" y="670" width="140" height="40" as="geometry" />
        </mxCell>
        <mxCell id="FvhLVzp3-vAK4EzgBv7z-4" value="" style="whiteSpace=wrap;html=1;aspect=fixed;" vertex="1" parent="1">
          <mxGeometry x="742.5" y="780" width="380" height="380" as="geometry" />
        </mxCell>
        <mxCell id="FvhLVzp3-vAK4EzgBv7z-22" style="edgeStyle=orthogonalEdgeStyle;rounded=0;orthogonalLoop=1;jettySize=auto;html=1;exitX=0;exitY=0;exitDx=60;exitDy=60;exitPerimeter=0;" edge="1" parent="1" source="FvhLVzp3-vAK4EzgBv7z-5" target="FvhLVzp3-vAK4EzgBv7z-15">
          <mxGeometry relative="1" as="geometry" />
        </mxCell>
        <mxCell id="FvhLVzp3-vAK4EzgBv7z-24" value="INFERENCE" style="edgeLabel;html=1;align=center;verticalAlign=middle;resizable=0;points=[];fontSize=15;fontStyle=1;fontColor=#FF0080;" vertex="1" connectable="0" parent="FvhLVzp3-vAK4EzgBv7z-22">
          <mxGeometry x="-0.0376" y="-2" relative="1" as="geometry">
            <mxPoint x="314" y="-12" as="offset" />
          </mxGeometry>
        </mxCell>
        <mxCell id="FvhLVzp3-vAK4EzgBv7z-5" value="" style="shape=note;whiteSpace=wrap;html=1;backgroundOutline=1;darkOpacity=0.05;" vertex="1" parent="1">
          <mxGeometry x="70" y="30" width="60" height="90" as="geometry" />
        </mxCell>
        <mxCell id="FvhLVzp3-vAK4EzgBv7z-6" value="Dữ liệu Ảnh được cào về" style="text;html=1;align=center;verticalAlign=middle;resizable=0;points=[];autosize=1;strokeColor=none;fillColor=none;fontSize=16;fontStyle=1" vertex="1" parent="1">
          <mxGeometry width="200" height="30" as="geometry" />
        </mxCell>
        <mxCell id="FvhLVzp3-vAK4EzgBv7z-7" value="" style="shape=note;whiteSpace=wrap;html=1;backgroundOutline=1;darkOpacity=0.05;" vertex="1" parent="1">
          <mxGeometry x="60" y="30" width="60" height="90" as="geometry" />
        </mxCell>
        <mxCell id="FvhLVzp3-vAK4EzgBv7z-8" value="" style="shape=note;whiteSpace=wrap;html=1;backgroundOutline=1;darkOpacity=0.05;" vertex="1" parent="1">
          <mxGeometry x="50" y="30" width="60" height="90" as="geometry" />
        </mxCell>
        <mxCell id="FvhLVzp3-vAK4EzgBv7z-36" style="edgeStyle=orthogonalEdgeStyle;rounded=0;orthogonalLoop=1;jettySize=auto;html=1;entryX=0.006;entryY=0.39;entryDx=0;entryDy=0;entryPerimeter=0;" edge="1" parent="1">
          <mxGeometry relative="1" as="geometry">
            <mxPoint x="647.04" y="857.6000000000001" as="targetPoint" />
            <mxPoint x="60.00325581395349" y="110" as="sourcePoint" />
            <Array as="points">
              <mxPoint x="60" y="858" />
            </Array>
          </mxGeometry>
        </mxCell>
        <mxCell id="FvhLVzp3-vAK4EzgBv7z-38" value="Visualize ảnh từ tập dữ liệu" style="edgeLabel;html=1;align=center;verticalAlign=middle;resizable=0;points=[];fontSize=15;fontColor=#66FF66;fontStyle=1" vertex="1" connectable="0" parent="FvhLVzp3-vAK4EzgBv7z-36">
          <mxGeometry x="0.5753" y="3" relative="1" as="geometry">
            <mxPoint x="127" y="28" as="offset" />
          </mxGeometry>
        </mxCell>
        <mxCell id="FvhLVzp3-vAK4EzgBv7z-9" value="" style="shape=note;whiteSpace=wrap;html=1;backgroundOutline=1;darkOpacity=0.05;" vertex="1" parent="1">
          <mxGeometry x="40" y="30" width="60" height="90" as="geometry" />
        </mxCell>
        <mxCell id="FvhLVzp3-vAK4EzgBv7z-31" style="edgeStyle=orthogonalEdgeStyle;rounded=0;orthogonalLoop=1;jettySize=auto;html=1;entryX=0.5;entryY=0;entryDx=0;entryDy=0;" edge="1" parent="1" source="FvhLVzp3-vAK4EzgBv7z-14" target="FvhLVzp3-vAK4EzgBv7z-30">
          <mxGeometry relative="1" as="geometry" />
        </mxCell>
        <mxCell id="FvhLVzp3-vAK4EzgBv7z-14" value="OUTPUT&lt;div&gt;&lt;font style=&quot;font-size: 14px; color: rgb(102, 102, 255);&quot;&gt;-Tọa độ của bounding box (vd: x1,y1, y2,y2)&lt;/font&gt;&lt;/div&gt;&lt;div&gt;&lt;font style=&quot;font-size: 14px; color: rgb(102, 102, 255);&quot;&gt;-Label&lt;/font&gt;&lt;/div&gt;&lt;div&gt;&lt;font color=&quot;#6666ff&quot;&gt;&lt;span style=&quot;font-size: 14px;&quot;&gt;-Confident_score&lt;br&gt;&lt;/span&gt;&lt;/font&gt;&lt;i&gt;(Phần này tui cần tìm hiểu thêm, nhưng đại khái nó sẽ như trên)&lt;/i&gt;&lt;/div&gt;" style="rounded=1;whiteSpace=wrap;html=1;" vertex="1" parent="1">
          <mxGeometry x="610" y="45" width="410" height="90" as="geometry" />
        </mxCell>
        <mxCell id="FvhLVzp3-vAK4EzgBv7z-25" style="edgeStyle=orthogonalEdgeStyle;rounded=0;orthogonalLoop=1;jettySize=auto;html=1;" edge="1" parent="1" source="FvhLVzp3-vAK4EzgBv7z-15" target="FvhLVzp3-vAK4EzgBv7z-14">
          <mxGeometry relative="1" as="geometry" />
        </mxCell>
        <mxCell id="FvhLVzp3-vAK4EzgBv7z-15" value="YOLOv11 Nano" style="shape=folder;fontStyle=1;tabWidth=110;tabHeight=30;tabPosition=left;html=1;boundedLbl=1;folderSymbol=triangle;whiteSpace=wrap;" vertex="1" parent="1">
          <mxGeometry x="330" y="50" width="150" height="80" as="geometry" />
        </mxCell>
        <mxCell id="FvhLVzp3-vAK4EzgBv7z-26" value="Mô hình pretrain" style="text;html=1;align=center;verticalAlign=middle;resizable=0;points=[];autosize=1;strokeColor=none;fillColor=none;fontSize=16;fontStyle=1" vertex="1" parent="1">
          <mxGeometry x="335" width="140" height="30" as="geometry" />
        </mxCell>
        <mxCell id="FvhLVzp3-vAK4EzgBv7z-34" style="edgeStyle=orthogonalEdgeStyle;rounded=0;orthogonalLoop=1;jettySize=auto;html=1;entryX=1;entryY=0.5;entryDx=0;entryDy=0;" edge="1" parent="1" source="FvhLVzp3-vAK4EzgBv7z-30" target="FvhLVzp3-vAK4EzgBv7z-32">
          <mxGeometry relative="1" as="geometry">
            <Array as="points">
              <mxPoint x="700" y="640" />
            </Array>
          </mxGeometry>
        </mxCell>
        <mxCell id="FvhLVzp3-vAK4EzgBv7z-30" value="&lt;div style=&quot;text-align: center;&quot;&gt;&lt;b style=&quot;color: rgb(255, 0, 128); font-size: 16px; background-color: transparent;&quot;&gt;Lưu tất cả vào 1 file json (kèm tên / id ảnh), ví dụ:&lt;/b&gt;&lt;/div&gt;&lt;div style=&quot;text-align: center;&quot;&gt;&lt;font style=&quot;color: rgb(0, 0, 0);&quot;&gt;&lt;br&gt;&lt;/font&gt;&lt;/div&gt;&lt;blockquote style=&quot;margin: 0 0 0 40px; border: none; padding: 0px;&quot;&gt;&lt;div&gt;&lt;div&gt;&lt;div style=&quot;&quot;&gt;&lt;font style=&quot;font-size: 14px; color: rgb(0, 0, 0);&quot;&gt;[&lt;/font&gt;&lt;/div&gt;&lt;/div&gt;&lt;/div&gt;&lt;div&gt;&lt;div&gt;&lt;div&gt;&lt;font style=&quot;font-size: 14px; color: rgb(0, 0, 0);&quot;&gt;&amp;nbsp; {&lt;/font&gt;&lt;/div&gt;&lt;/div&gt;&lt;/div&gt;&lt;div&gt;&lt;div&gt;&lt;div&gt;&lt;font style=&quot;font-size: 14px; color: rgb(0, 0, 0);&quot;&gt;&amp;nbsp; &amp;nbsp; &quot;name&quot;: &quot;image01892831.....&quot;,&lt;/font&gt;&lt;/div&gt;&lt;/div&gt;&lt;/div&gt;&lt;div&gt;&lt;div&gt;&lt;div&gt;&lt;font style=&quot;font-size: 14px; color: rgb(0, 0, 0);&quot;&gt;&amp;nbsp; &amp;nbsp; &quot;annotations&quot;: [&lt;/font&gt;&lt;/div&gt;&lt;/div&gt;&lt;/div&gt;&lt;div&gt;&lt;div&gt;&lt;div&gt;&lt;font style=&quot;font-size: 14px; color: rgb(0, 0, 0);&quot;&gt;&amp;nbsp; &amp;nbsp; &amp;nbsp; { &quot;bounding_box&quot;: { &quot;x1&quot;: 100, &quot;y1&quot;: 150, &quot;x2&quot;: 300, &quot;y2&quot;: 400 }, &quot;label&quot;: &quot;car&quot;, &quot;confident_score&quot;: 0.7 }&lt;/font&gt;&lt;/div&gt;&lt;/div&gt;&lt;/div&gt;&lt;div&gt;&lt;div&gt;&lt;div&gt;&lt;font style=&quot;font-size: 14px; color: rgb(0, 0, 0);&quot;&gt;&amp;nbsp; &amp;nbsp; ]&lt;/font&gt;&lt;/div&gt;&lt;/div&gt;&lt;/div&gt;&lt;div&gt;&lt;div&gt;&lt;div&gt;&lt;font style=&quot;font-size: 14px; color: rgb(0, 0, 0);&quot;&gt;&amp;nbsp; },&lt;/font&gt;&lt;/div&gt;&lt;/div&gt;&lt;/div&gt;&lt;div&gt;&lt;div&gt;&lt;div&gt;&lt;font style=&quot;font-size: 14px; color: rgb(0, 0, 0);&quot;&gt;&amp;nbsp; {&lt;/font&gt;&lt;/div&gt;&lt;/div&gt;&lt;/div&gt;&lt;div&gt;&lt;div&gt;&lt;div&gt;&lt;font style=&quot;font-size: 14px; color: rgb(0, 0, 0);&quot;&gt;&amp;nbsp; &amp;nbsp; &quot;name&quot;: &quot;image01892832.....&quot;,&lt;/font&gt;&lt;/div&gt;&lt;/div&gt;&lt;/div&gt;&lt;div&gt;&lt;div&gt;&lt;div&gt;&lt;font style=&quot;font-size: 14px; color: rgb(0, 0, 0);&quot;&gt;&amp;nbsp; &amp;nbsp; &quot;annotations&quot;: [&lt;/font&gt;&lt;/div&gt;&lt;/div&gt;&lt;/div&gt;&lt;div&gt;&lt;div&gt;&lt;div&gt;&lt;font style=&quot;font-size: 14px; color: rgb(0, 0, 0);&quot;&gt;&amp;nbsp; &amp;nbsp; &amp;nbsp; { &quot;bounding_box&quot;: { &quot;x1&quot;: 30, &quot;y1&quot;: 40, &quot;x2&quot;: 80, &quot;y2&quot;: 120 }, &quot;label&quot;: &quot;dog&quot;, &quot;confident_score&quot;: 0.6 },&lt;/font&gt;&lt;/div&gt;&lt;/div&gt;&lt;/div&gt;&lt;div&gt;&lt;div&gt;&lt;div&gt;&lt;font style=&quot;font-size: 14px; color: rgb(0, 0, 0);&quot;&gt;&amp;nbsp; &amp;nbsp; &amp;nbsp; { &quot;bounding_box&quot;: { &quot;x1&quot;: 150, &quot;y1&quot;: 200, &quot;x2&quot;: 220, &quot;y2&quot;: 260 }, &quot;label&quot;: &quot;cat&quot;, &quot;confident_score&quot;: 0.9 }&lt;/font&gt;&lt;/div&gt;&lt;/div&gt;&lt;/div&gt;&lt;div&gt;&lt;div&gt;&lt;div&gt;&lt;font style=&quot;font-size: 14px; color: rgb(0, 0, 0);&quot;&gt;&amp;nbsp; &amp;nbsp; ]&lt;/font&gt;&lt;/div&gt;&lt;/div&gt;&lt;/div&gt;&lt;div&gt;&lt;div&gt;&lt;div&gt;&lt;font style=&quot;font-size: 14px; color: rgb(0, 0, 0);&quot;&gt;&amp;nbsp; }&lt;/font&gt;&lt;/div&gt;&lt;/div&gt;&lt;/div&gt;&lt;div&gt;&lt;div&gt;&lt;div&gt;&lt;font style=&quot;font-size: 14px; color: rgb(0, 0, 0);&quot;&gt;&amp;nbsp; .....&lt;/font&gt;&lt;/div&gt;&lt;/div&gt;&lt;/div&gt;&lt;div&gt;&lt;div&gt;&lt;div&gt;&lt;font style=&quot;font-size: 14px; color: rgb(0, 0, 0);&quot;&gt;]&lt;/font&gt;&lt;/div&gt;&lt;/div&gt;&lt;/div&gt;&lt;/blockquote&gt;&lt;div&gt;&lt;div&gt;&lt;br&gt;&lt;/div&gt;&lt;/div&gt;" style="rounded=0;whiteSpace=wrap;html=1;align=left;" vertex="1" parent="1">
          <mxGeometry x="468.13" y="190" width="693.75" height="340" as="geometry" />
        </mxCell>
        <mxCell id="FvhLVzp3-vAK4EzgBv7z-39" style="edgeStyle=orthogonalEdgeStyle;rounded=0;orthogonalLoop=1;jettySize=auto;html=1;" edge="1" parent="1" source="FvhLVzp3-vAK4EzgBv7z-32">
          <mxGeometry relative="1" as="geometry">
            <mxPoint x="645" y="820" as="targetPoint" />
            <Array as="points">
              <mxPoint x="380" y="820" />
            </Array>
          </mxGeometry>
        </mxCell>
        <mxCell id="FvhLVzp3-vAK4EzgBv7z-40" value="Lấy Json của tên ảnh trùng&amp;nbsp;&lt;div&gt;với ảnh được chọn để visualize&lt;/div&gt;" style="edgeLabel;html=1;align=center;verticalAlign=middle;resizable=0;points=[];fontSize=14;fontColor=#66FF66;fontStyle=1" vertex="1" connectable="0" parent="FvhLVzp3-vAK4EzgBv7z-39">
          <mxGeometry x="0.3358" relative="1" as="geometry">
            <mxPoint x="-23" y="-30" as="offset" />
          </mxGeometry>
        </mxCell>
        <mxCell id="FvhLVzp3-vAK4EzgBv7z-32" value="" style="shape=datastore;html=1;labelPosition=center;verticalLabelPosition=bottom;align=center;verticalAlign=top;" vertex="1" parent="1">
          <mxGeometry x="335" y="590" width="100" height="100" as="geometry" />
        </mxCell>
        <mxCell id="FvhLVzp3-vAK4EzgBv7z-35" value="Mongo DB&amp;nbsp; database" style="text;html=1;align=center;verticalAlign=middle;resizable=0;points=[];autosize=1;strokeColor=none;fillColor=none;fontSize=17;fontStyle=1" vertex="1" parent="1">
          <mxGeometry x="300" y="550" width="180" height="30" as="geometry" />
        </mxCell>
        <mxCell id="FvhLVzp3-vAK4EzgBv7z-43" value="" style="dashed=0;outlineConnect=0;html=1;align=center;labelPosition=center;verticalLabelPosition=bottom;verticalAlign=top;shape=mxgraph.weblogos.json" vertex="1" parent="1">
          <mxGeometry x="1090" y="200" width="50" height="60" as="geometry" />
        </mxCell>
        <mxCell id="FvhLVzp3-vAK4EzgBv7z-47" value="Update label" style="labelPosition=center;verticalLabelPosition=middle;align=center;html=1;shape=mxgraph.basic.button;dx=10;whiteSpace=wrap;fontStyle=1" vertex="1" parent="1">
          <mxGeometry x="742.4999999999999" y="1190" width="108.11" height="50" as="geometry" />
        </mxCell>
        <mxCell id="FvhLVzp3-vAK4EzgBv7z-53" value="&lt;font data-mx-given-colors=&quot;{&amp;quot;color&amp;quot;:&amp;quot;rgb(127, 0, 255)&amp;quot;}&quot; style=&quot;forced-color-adjust: none; font-family: Helvetica; font-size: 12px; font-style: normal; font-variant-ligatures: normal; font-variant-caps: normal; font-weight: 400; letter-spacing: normal; orphans: 2; text-indent: 0px; text-transform: none; widows: 2; word-spacing: 0px; -webkit-text-stroke-width: 0px; white-space: normal; text-decoration-thickness: initial; text-decoration-style: initial; text-decoration-color: initial;&quot;&gt;&lt;b style=&quot;forced-color-adjust: none;&quot;&gt;Ảnh + Bounding box +&amp;nbsp;&lt;/b&gt;&lt;/font&gt;&lt;div style=&quot;forced-color-adjust: none; font-family: Helvetica; font-size: 12px; font-style: normal; font-variant-ligatures: normal; font-variant-caps: normal; font-weight: 400; letter-spacing: normal; orphans: 2; text-indent: 0px; text-transform: none; widows: 2; word-spacing: 0px; -webkit-text-stroke-width: 0px; white-space: normal; text-decoration-thickness: initial; text-decoration-style: initial; text-decoration-color: initial;&quot;&gt;&lt;font data-mx-given-colors=&quot;{&amp;quot;color&amp;quot;:&amp;quot;rgb(127, 0, 255)&amp;quot;}&quot; style=&quot;forced-color-adjust: none;&quot;&gt;&lt;b style=&quot;forced-color-adjust: none;&quot;&gt;label + confident_score&lt;/b&gt;&lt;/font&gt;&lt;/div&gt;" style="text;whiteSpace=wrap;html=1;fontColor=#7F00FF;labelBackgroundColor=none;align=center;" vertex="1" parent="1">
          <mxGeometry x="850" y="740" width="170" height="50" as="geometry" />
        </mxCell>
        <mxCell id="FvhLVzp3-vAK4EzgBv7z-54" value="" style="shape=umlActor;verticalLabelPosition=bottom;verticalAlign=top;html=1;outlineConnect=0;" vertex="1" parent="1">
          <mxGeometry x="800" y="860" width="30" height="60" as="geometry" />
        </mxCell>
        <mxCell id="FvhLVzp3-vAK4EzgBv7z-58" value="" style="rounded=0;whiteSpace=wrap;html=1;fillColor=none;fontColor=#ffffff;strokeColor=#FF6666;" vertex="1" parent="1">
          <mxGeometry x="787.5" y="852.5" width="55" height="75" as="geometry" />
        </mxCell>
        <mxCell id="FvhLVzp3-vAK4EzgBv7z-59" value="Human 0.85" style="text;html=1;align=center;verticalAlign=middle;whiteSpace=wrap;rounded=0;fontSize=15;labelBackgroundColor=default;fontColor=#FF0080;" vertex="1" parent="1">
          <mxGeometry x="760" y="822.5" width="90" height="30" as="geometry" />
        </mxCell>
        <mxCell id="FvhLVzp3-vAK4EzgBv7z-60" value="" style="shape=mxgraph.signs.transportation.car_1;html=1;pointerEvents=1;fillColor=#000000;strokeColor=none;verticalLabelPosition=bottom;verticalAlign=top;align=center;" vertex="1" parent="1">
          <mxGeometry x="953.13" y="990" width="84.37" height="80" as="geometry" />
        </mxCell>
        <mxCell id="FvhLVzp3-vAK4EzgBv7z-61" value="" style="rounded=0;whiteSpace=wrap;html=1;fillColor=none;fontColor=#ffffff;strokeColor=#FF6666;" vertex="1" parent="1">
          <mxGeometry x="945.32" y="962.5" width="100" height="120" as="geometry" />
        </mxCell>
        <mxCell id="FvhLVzp3-vAK4EzgBv7z-62" value="Car 0.5" style="text;html=1;align=center;verticalAlign=middle;whiteSpace=wrap;rounded=0;fontSize=15;labelBackgroundColor=default;fontColor=#FF0080;" vertex="1" parent="1">
          <mxGeometry x="930" y="932.5" width="60" height="30" as="geometry" />
        </mxCell>
        <mxCell id="FvhLVzp3-vAK4EzgBv7z-63" value="&lt;i&gt;Để có thể update được label; việc tốt nhất mà ta có thể làm đó là visualize các label như một text box (Object) được render chồng lên ảnh. Cho phép khả năng edit trực tiếp và lưu lại khi nhấn &quot;Save&quot;&lt;/i&gt;" style="text;html=1;align=center;verticalAlign=middle;whiteSpace=wrap;rounded=0;" vertex="1" parent="1">
          <mxGeometry x="860" y="792.5" width="250" height="90" as="geometry" />
        </mxCell>
        <mxCell id="FvhLVzp3-vAK4EzgBv7z-65" style="edgeStyle=orthogonalEdgeStyle;rounded=0;orthogonalLoop=1;jettySize=auto;html=1;entryX=0.15;entryY=0.95;entryDx=0;entryDy=0;entryPerimeter=0;" edge="1" parent="1" source="FvhLVzp3-vAK4EzgBv7z-47" target="FvhLVzp3-vAK4EzgBv7z-32">
          <mxGeometry relative="1" as="geometry" />
        </mxCell>
        <mxCell id="FvhLVzp3-vAK4EzgBv7z-67" value="Overwrite json của ảnh với label mới khi nhất nút" style="edgeLabel;html=1;align=center;verticalAlign=middle;resizable=0;points=[];fontSize=15;fontColor=#FF0080;fontStyle=1" vertex="1" connectable="0" parent="1">
          <mxGeometry x="460" y="1230" as="geometry">
            <mxPoint x="-16" y="4" as="offset" />
          </mxGeometry>
        </mxCell>
        <mxCell id="FvhLVzp3-vAK4EzgBv7z-68" style="edgeStyle=orthogonalEdgeStyle;rounded=0;orthogonalLoop=1;jettySize=auto;html=1;entryX=0.5;entryY=1;entryDx=0;entryDy=0;entryPerimeter=0;" edge="1" parent="1" source="FvhLVzp3-vAK4EzgBv7z-32" target="FvhLVzp3-vAK4EzgBv7z-15">
          <mxGeometry relative="1" as="geometry">
            <Array as="points">
              <mxPoint x="160" y="640" />
              <mxPoint x="160" y="200" />
              <mxPoint x="405" y="200" />
            </Array>
          </mxGeometry>
        </mxCell>
        <mxCell id="FvhLVzp3-vAK4EzgBv7z-69" value="FINETUNE Model với Ảnh và Label mới" style="edgeLabel;html=1;align=center;verticalAlign=middle;resizable=0;points=[];fontStyle=1;fontSize=15;fontColor=#FF0080;" vertex="1" connectable="0" parent="FvhLVzp3-vAK4EzgBv7z-68">
          <mxGeometry x="0.5871" y="3" relative="1" as="geometry">
            <mxPoint x="-32" y="-7" as="offset" />
          </mxGeometry>
        </mxCell>
        <mxCell id="FvhLVzp3-vAK4EzgBv7z-70" value="Chọn ảnh" style="labelPosition=center;verticalLabelPosition=middle;align=center;html=1;shape=mxgraph.basic.button;dx=10;whiteSpace=wrap;fontStyle=1" vertex="1" parent="1">
          <mxGeometry x="878.45" y="1190" width="108.11" height="50" as="geometry" />
        </mxCell>
        <mxCell id="FvhLVzp3-vAK4EzgBv7z-71" value="Xóa" style="labelPosition=center;verticalLabelPosition=middle;align=center;html=1;shape=mxgraph.basic.button;dx=10;whiteSpace=wrap;fontStyle=1" vertex="1" parent="1">
          <mxGeometry x="1014.39" y="1190" width="108.11" height="50" as="geometry" />
        </mxCell>
        <mxCell id="FvhLVzp3-vAK4EzgBv7z-73" value="&lt;i&gt;Chọn ảnh mới để visualize&lt;/i&gt;&lt;span style=&quot;font-family: monospace; font-size: 0px; text-align: start; text-wrap-mode: nowrap;&quot;&gt;%3CmxGraphModel%3E%3Croot%3E%3CmxCell%20id%3D%220%22%2F%3E%3CmxCell%20id%3D%221%22%20parent%3D%220%22%2F%3E%3CmxCell%20id%3D%222%22%20value%3D%22%26lt%3Bi%26gt%3B%C4%90%E1%BB%83%20c%C3%B3%20th%E1%BB%83%20update%20%C4%91%C6%B0%E1%BB%A3c%20label%3B%20vi%E1%BB%87c%20t%E1%BB%91t%20nh%E1%BA%A5t%20m%C3%A0%20ta%20c%C3%B3%20th%E1%BB%83%20l%C3%A0m%20%C4%91%C3%B3%20l%C3%A0%20visualize%20c%C3%A1c%20label%20nh%C6%B0%20m%E1%BB%99t%20text%20box%20(Object)%20%C4%91%C6%B0%E1%BB%A3c%20render%20ch%E1%BB%93ng%20l%C3%AAn%20%E1%BA%A3nh.%20Cho%20ph%C3%A9p%20kh%E1%BA%A3%20n%C4%83ng%20edit%20tr%E1%BB%B1c%20ti%E1%BA%BFp%20v%C3%A0%20l%C6%B0u%20l%E1%BA%A1i%20khi%20nh%E1%BA%A5n%20%26quot%3BSave%26quot%3B%26lt%3B%2Fi%26gt%3B%22%20style%3D%22text%3Bhtml%3D1%3Balign%3Dcenter%3BverticalAlign%3Dmiddle%3BwhiteSpace%3Dwrap%3Brounded%3D0%3B%22%20vertex%3D%221%22%20parent%3D%221%22%3E%3CmxGeometry%20x%3D%22860%22%20y%3D%22792.5%22%20width%3D%22250%22%20height%3D%2290%22%20as%3D%22geometry%22%2F%3E%3C%2FmxCell%3E%3C%2Froot%3E%3C%2FmxGraphModel%3E&lt;/span&gt;" style="text;html=1;align=center;verticalAlign=middle;whiteSpace=wrap;rounded=0;fontColor=#33FF99;" vertex="1" parent="1">
          <mxGeometry x="882.5" y="1250" width="100" height="30" as="geometry" />
        </mxCell>
        <mxCell id="FvhLVzp3-vAK4EzgBv7z-74" value="&lt;i&gt;Loại bỏ visualize hiện tại (render cái gì đó để tạm vào)&lt;/i&gt;" style="text;html=1;align=center;verticalAlign=middle;whiteSpace=wrap;rounded=0;fontColor=#33FF99;" vertex="1" parent="1">
          <mxGeometry x="1003.44" y="1250" width="130" height="40" as="geometry" />
        </mxCell>
        <mxCell id="FvhLVzp3-vAK4EzgBv7z-75" value="" style="dashed=0;outlineConnect=0;html=1;align=center;labelPosition=center;verticalLabelPosition=bottom;verticalAlign=top;shape=mxgraph.weblogos.json" vertex="1" parent="1">
          <mxGeometry x="365" y="630" width="40" height="40" as="geometry" />
        </mxCell>
      </root>
    </mxGraphModel>
  </diagram>
</mxfile>
